<svg xmlns="http://www.w3.org/2000/svg" viewBox="0 0 38 57" role="img" aria-label="Figma">
  <path fill="#F24E1E" d="M19 0H9.5C4.253 0 0 4.253 0 9.5S4.253 19 9.5 19H19V0Z"/>
  <path fill="#A259FF" d="M19 19H9.5C4.253 19 0 23.253 0 28.5S4.253 38 9.5 38H19V19Z"/>
  <path fill="#0ACF83" d="M19 38H9.5C4.253 38 0 42.253 0 47.5S4.253 57 9.5 57 19 52.747 19 47.5V38Z"/>
  <path fill="#FF7262" d="M19 0h9.5C33.747 0 38 4.253 38 9.5S33.747 19 28.5 19H19V0Z"/>
  <path fill="#1ABCFE" d="M38 28.5c0 5.247-4.253 9.5-9.5 9.5S19 33.747 19 28.5s4.253-9.5 9.5-9.5 9.5 4.253 9.5 9.5Z"/>
</svg>
